<svg xmlns="http://www.w3.org/2000/svg" viewBox="0 0 24 24" role="img" aria-label="GitHub">
  <path fill="currentColor" d="M12 .5a12 12 0 0 0-3.8 23.4c.6.1.8-.3.8-.6v-2.1c-3.3.7-4-1.4-4-1.4-.5-1.3-1.2-1.7-1.2-1.7-1-.7.1-.7.1-.7 1.1.1 1.7 1.1 1.7 1.1 1 .1 1.6-.7 1.9-1.2.1-.8.4-1.3.7-1.6-2.6-.3-5.3-1.3-5.3-5.8 0-1.3.5-2.4 1.2-3.3-.1-.3-.5-1.5.1-3.2 0 0 1-.3 3.3 1.2a11.4 11.4 0 0 1 6 0C16.8 4.3 17.8 4.6 17.8 4.6c.6 1.7.2 2.9.1 3.2.8.9 1.2 2 1.2 3.3 0 4.5-2.7 5.5-5.3 5.8.4.3.7 1 .7 2.1v3.1c0 .3.2.7.8.6A12 12 0 0 0 12 .5z"/>
</svg>
